<?xml version="1.0" encoding="UTF-8" standalone="no"?>
<!-- Created with Inkscape (http://www.inkscape.org/) -->

<svg
   xmlns:dc="http://purl.org/dc/elements/1.1/"
   xmlns:cc="http://creativecommons.org/ns#"
   xmlns:rdf="http://www.w3.org/1999/02/22-rdf-syntax-ns#"
   xmlns:svg="http://www.w3.org/2000/svg"
   xmlns="http://www.w3.org/2000/svg"
   xmlns:sodipodi="http://sodipodi.sourceforge.net/DTD/sodipodi-0.dtd"
   xmlns:inkscape="http://www.inkscape.org/namespaces/inkscape"
   width="100.35853mm"
   height="99.381065mm"
   viewBox="0 0 355.60108 352.13763"
   id="svg5311"
   version="1.1"
   inkscape:version="0.91 r13725"
   sodipodi:docname="resource2.svg">
  <defs
     id="defs5313" />
  <sodipodi:namedview
     id="base"
     pagecolor="#ffffff"
     bordercolor="#666666"
     borderopacity="1.0"
     inkscape:pageopacity="0.0"
     inkscape:pageshadow="2"
     inkscape:zoom="0.35"
     inkscape:cx="-369.7364"
     inkscape:cy="-30.36843"
     inkscape:document-units="px"
     inkscape:current-layer="layer1"
     showgrid="false"
     fit-margin-top="0"
     fit-margin-left="0"
     fit-margin-right="0"
     fit-margin-bottom="0"
     inkscape:window-width="1855"
     inkscape:window-height="1056"
     inkscape:window-x="65"
     inkscape:window-y="24"
     inkscape:window-maximized="1" />
  <metadata
     id="metadata5316">
    <rdf:RDF>
      <cc:Work
         rdf:about="">
        <dc:format>image/svg+xml</dc:format>
        <dc:type
           rdf:resource="http://purl.org/dc/dcmitype/StillImage" />
        <dc:title></dc:title>
      </cc:Work>
    </rdf:RDF>
  </metadata>
  <g
     inkscape:label="Layer 1"
     inkscape:groupmode="layer"
     id="layer1"
     transform="translate(-46.164976,-149.85614)">
    <path
       sodipodi:type="star"
       style="fill:#ff0000;fill-opacity:1;stroke:#230a25;stroke-width:5.80000019;stroke-linejoin:round;stroke-miterlimit:4;stroke-dasharray:none;stroke-opacity:1"
       id="path6428"
       sodipodi:sides="7"
       sodipodi:cx="225.71429"
       sodipodi:cy="320.93362"
       sodipodi:r1="178.35986"
       sodipodi:r2="89.179932"
       sodipodi:arg1="0.61466295"
       sodipodi:arg2="1.0634619"
       inkscape:flatsided="false"
       inkscape:rounded="0.54"
       inkscape:randomized="0"
       d="m 371.42857,423.79076 c -32.81408,46.48662 -52.65203,-52.55557 -102.38628,-24.91007 -49.73426,27.6455 23.91037,96.77847 -32.89358,100.10732 -56.80394,3.32885 8.2616,-73.93288 -44.36132,-95.58 -52.62292,-21.64711 -60.75658,79.03427 -98.775865,36.69866 -38.019281,-42.33561 62.954065,-39.63721 47.068615,-94.27623 -15.88546,-54.63901 -99.672591,1.77565 -90.277911,-54.34484 9.394679,-56.12049 70.240841,24.50607 103.054931,-21.98054 32.81408,-46.48662 -63.533108,-76.82007 -13.79885,-104.46557 49.73425,-27.6455 24.63483,70.19579 81.43878,66.86694 56.80394,-3.32885 20.4481,-97.56871 73.07102,-75.92159 52.62292,21.64712 -39.52171,63.02665 -1.50243,105.36226 38.01928,42.33561 89.03147,-44.84612 104.91693,9.79289 15.88545,54.63902 -73.9176,8.39715 -83.31228,64.51765 -9.39468,56.12049 90.57232,41.6465 57.75824,88.13312 z"
       inkscape:transform-center-x="15.168557"
       inkscape:transform-center-y="0.6088726" />
  </g>
</svg>
