<?xml version="1.0" encoding="UTF-8" standalone="no"?>
<!-- Generator: Adobe Illustrator 15.0.0, SVG Export Plug-In . SVG Version: 6.00 Build 0)  -->

<svg
   xmlns:dc="http://purl.org/dc/elements/1.1/"
   xmlns:cc="http://creativecommons.org/ns#"
   xmlns:rdf="http://www.w3.org/1999/02/22-rdf-syntax-ns#"
   xmlns:svg="http://www.w3.org/2000/svg"
   xmlns="http://www.w3.org/2000/svg"
   xmlns:sodipodi="http://sodipodi.sourceforge.net/DTD/sodipodi-0.dtd"
   xmlns:inkscape="http://www.inkscape.org/namespaces/inkscape"
   version="1.1"
   id="Layer_1"
   x="0px"
   y="0px"
   width="128px"
   height="128px"
   viewBox="0 0 128 128"
   style="enable-background:new 0 0 128 128;"
   xml:space="preserve"
   inkscape:version="0.91 r13725"
   sodipodi:docname="happy2.svg"><metadata
     id="metadata23"><rdf:RDF><cc:Work
         rdf:about=""><dc:format>image/svg+xml</dc:format><dc:type
           rdf:resource="http://purl.org/dc/dcmitype/StillImage" /><dc:title></dc:title></cc:Work></rdf:RDF></metadata><defs
     id="defs21" /><sodipodi:namedview
     pagecolor="#ffffff"
     bordercolor="#666666"
     borderopacity="1"
     objecttolerance="10"
     gridtolerance="10"
     guidetolerance="10"
     inkscape:pageopacity="0"
     inkscape:pageshadow="2"
     inkscape:window-width="891"
     inkscape:window-height="480"
     id="namedview19"
     showgrid="false"
     inkscape:zoom="1.84375"
     inkscape:cx="64"
     inkscape:cy="64"
     inkscape:window-x="65"
     inkscape:window-y="24"
     inkscape:window-maximized="0"
     inkscape:current-layer="Layer_1" /><g
     id="g3"
     transform="matrix(-1,0,0,-1,128,128)"><circle
       style="fill:#ffc200"
       cx="64"
       cy="64"
       r="64"
       id="circle5" /><path
       style="fill:#f2b800"
       d="m 64,0 c -1.685,0 -3.348,0.085 -5,0.213 33.007,2.554 59,30.124 59,63.787 0,33.664 -25.993,61.232 -59,63.787 1.652,0.128 3.315,0.213 5,0.213 35.348,0 64,-28.652 64,-64 C 128,28.652 99.348,0 64,0 Z"
       id="path7"
       inkscape:connector-curvature="0" /><path
       style="fill:#f2b800"
       d="M 63.989,119.956 C 56.491,119.91 48.986,118.273 42.285,115.225 35.444,112.048 29.321,107.548 24.563,102.205 19.743,96.907 15.914,90.462 13.504,83.582 11.116,76.605 10.186,69.286 10.807,62.397 c 0.228,-2.52 2.306,-4.419 4.833,-4.419 0.146,0 0.292,0.006 0.439,0.02 2.336,0.211 4.187,2.061 4.399,4.398 1.071,11.602 6.105,22.306 14.176,30.138 7.966,7.769 18.526,12.223 28.977,12.223 l 0.737,0 c 10.452,0 21.012,-4.454 28.973,-12.218 8.078,-7.855 13.111,-18.573 14.177,-30.179 0.23,-2.515 2.308,-4.41 4.83,-4.41 0.147,0 0.297,0.007 0.446,0.021 2.333,0.214 4.179,2.062 4.39,4.392 0.633,6.938 -0.297,14.247 -2.685,21.208 -2.412,6.892 -6.24,13.337 -11.075,18.652 -4.742,5.327 -10.867,9.827 -17.695,12.997 -6.713,3.054 -14.219,4.69 -21.716,4.737 -0.004,0 -0.009,0 -0.014,0 -0.002,-10e-4 -0.006,-10e-4 -0.01,-10e-4 z"
       id="path9"
       inkscape:connector-curvature="0" /><path
       style="fill:#f5f5f5"
       d="m 115.2,62.613 c 0.612,6.709 -0.341,13.744 -2.591,20.308 -2.299,6.565 -5.914,12.733 -10.664,17.954 -4.695,5.273 -10.573,9.52 -17.057,12.529 -6.513,2.962 -13.701,4.506 -20.888,4.551 -7.188,-0.044 -14.376,-1.589 -20.888,-4.553 -6.483,-3.01 -12.36,-7.254 -17.056,-12.527 C 21.306,95.654 17.691,89.486 15.391,82.921 13.14,76.343 12.186,69.358 12.798,62.577 12.94,61.006 14.329,59.848 15.9,59.99 c 1.395,0.126 2.465,1.241 2.587,2.587 1.118,12.108 6.459,23.321 14.774,31.392 8.275,8.07 19.434,12.893 30.738,12.786 11.305,0.106 22.464,-4.714 30.738,-12.784 8.313,-8.087 13.654,-19.25 14.771,-31.429 0.146,-1.569 1.533,-2.725 3.103,-2.581 1.392,0.128 2.459,1.236 2.58,2.581 l 0.009,0.071 z"
       id="path11"
       inkscape:connector-curvature="0" /><g
       id="g13"><path
         style="fill:#263740"
         d="m 51,42 c -1.657,0 -3,-1.343 -3,-3 0,-4.962 -4.038,-9 -9,-9 -4.962,0 -9,4.038 -9,9 0,1.657 -1.343,3 -3,3 -1.657,0 -3,-1.343 -3,-3 0,-8.271 6.729,-15 15,-15 8.271,0 15,6.729 15,15 0,1.657 -1.343,3 -3,3 z"
         id="path15"
         inkscape:connector-curvature="0" /><path
         style="fill:#263740"
         d="m 101,42 c -1.657,0 -3,-1.343 -3,-3 0,-4.962 -4.038,-9 -9,-9 -4.962,0 -9,4.038 -9,9 0,1.657 -1.343,3 -3,3 -1.657,0 -3,-1.343 -3,-3 0,-8.271 6.729,-15 15,-15 8.271,0 15,6.729 15,15 0,1.657 -1.343,3 -3,3 z"
         id="path17"
         inkscape:connector-curvature="0" /></g></g></svg>