<?xml version="1.0" encoding="UTF-8" standalone="no"?>
<!-- Created with Inkscape (http://www.inkscape.org/) -->

<svg
   xmlns:dc="http://purl.org/dc/elements/1.1/"
   xmlns:cc="http://creativecommons.org/ns#"
   xmlns:rdf="http://www.w3.org/1999/02/22-rdf-syntax-ns#"
   xmlns:svg="http://www.w3.org/2000/svg"
   xmlns="http://www.w3.org/2000/svg"
   xmlns:sodipodi="http://sodipodi.sourceforge.net/DTD/sodipodi-0.dtd"
   xmlns:inkscape="http://www.inkscape.org/namespaces/inkscape"
   version="1.0"
   width="382.46732"
   height="364.63541"
   viewBox="0 0 382.4673 364.63542"
   id="Layer_1"
   xml:space="preserve"
   inkscape:version="0.91 r13725"
   sodipodi:docname="mouse_wearing_dress.svg"><title
     id="title3363">mouse wearing dress</title><metadata
     id="metadata35"><rdf:RDF><cc:Work
         rdf:about=""><dc:format>image/svg+xml</dc:format><dc:type
           rdf:resource="http://purl.org/dc/dcmitype/StillImage" /><dc:title>mouse wearing dress</dc:title><dc:date>06/12/2015</dc:date><dc:creator><cc:Agent><dc:title>edited by Paul Sherman</dc:title></cc:Agent></dc:creator><dc:rights><cc:Agent><dc:title>pd</dc:title></cc:Agent></dc:rights><dc:publisher><cc:Agent><dc:title>wpclipart</dc:title></cc:Agent></dc:publisher><cc:license
           rdf:resource="http://creativecommons.org/publicdomain/zero/1.0/" /></cc:Work><cc:License
         rdf:about="http://creativecommons.org/publicdomain/zero/1.0/"><cc:permits
           rdf:resource="http://creativecommons.org/ns#Reproduction" /><cc:permits
           rdf:resource="http://creativecommons.org/ns#Distribution" /><cc:permits
           rdf:resource="http://creativecommons.org/ns#DerivativeWorks" /></cc:License></rdf:RDF></metadata><sodipodi:namedview
     pagecolor="#ffffff"
     bordercolor="#666666"
     borderopacity="1"
     objecttolerance="10"
     gridtolerance="10"
     guidetolerance="10"
     inkscape:pageopacity="0"
     inkscape:pageshadow="2"
     inkscape:window-width="1031"
     inkscape:window-height="905"
     id="namedview33"
     showgrid="false"
     fit-margin-top="4"
     fit-margin-left="4"
     fit-margin-right="4"
     fit-margin-bottom="4"
     inkscape:zoom="0.66174658"
     inkscape:cx="184.76545"
     inkscape:cy="182.31986"
     inkscape:window-x="0"
     inkscape:window-y="0"
     inkscape:window-maximized="0"
     inkscape:current-layer="Layer_1" /><defs
     id="defs64" /><g
     id="g5"
     transform="translate(3.9997205,3.9995506)"><path
       d="m 43.54,41.135 c 1.135,0.215 1.891,-0.919 2.486,-3.405 0.54,-2.594 -1.027,-7.998 0.918,-11.619 1.784,-3.837 5.513,-8.484 10.538,-10.376 5.08,-2.053 15.456,-2.918 19.455,-0.54 3.729,2.486 3.836,11.024 3.242,15.402 -0.756,3.945 -4.863,6.755 -7.512,9.295 -2.864,2.324 -7.512,3.729 -8.755,5.89 -1.243,2.216 0,4.756 1.405,6.972 1.243,2 3.459,3.729 6.431,5.188 l 0,0 c -0.271,-4.702 1.351,-9.565 4.647,-15.023 3.134,-5.513 8.431,-12.97 15.024,-17.347 6.755,-4.432 15.618,-8.539 24.48,-8.755 8.593,-0.378 19.131,2.648 26.643,6.81 7.188,4.053 12.646,11.186 16.969,17.671 4.27,6.269 7.188,13.132 8.755,20.373 l 0,0 c 2.973,-6.81 5.891,-11.834 8.755,-15.888 2.918,-3.945 5.566,-6.646 8.377,-7.89 l 0,0 c 0.107,-8.593 2.269,-15.78 6.268,-21.778 4,-6.107 10.863,-11.781 17.673,-14.105 6.646,-2.324 16.536,-3.026 22.156,0.163 5.403,3.08 8.97,12.159 10.916,18.05 1.945,5.782 2.377,11.186 1.081,16.428 l 0,0 c 4.539,1.73 8.538,3.675 11.781,6.431 3.242,2.647 5.729,5.674 7.674,9.295 l 0,0 c 2.702,-0.865 5.62,-3.081 8.755,-6.431 3.188,-3.567 6.269,-7.944 9.835,-13.942 l 0,0 c -1.135,4.161 -2.811,7.781 -4.81,11.078 -2.054,3.296 -4.432,5.836 -7.351,8.214 l 0,0 c 2.595,-1.026 4.918,-2.324 6.972,-3.891 2,-1.676 3.729,-3.513 5.188,-5.729 l 0,0 c -1.027,1.891 -1.891,3.675 -3.188,5.35 -1.135,1.729 -2.702,3.026 -4.107,4.485 l 0,0 c 5.566,0.162 10.376,1.405 14.43,3.729 3.944,2.27 7.943,5.62 9.511,9.835 1.567,4.161 1.513,9.998 -0.378,14.808 -2.108,4.54 -5.836,8.646 -11.619,12.537 l 0,0 c 0.271,2.324 -0.324,5.351 -1.783,9.08 -1.567,3.621 -3.999,7.566 -7.296,13.078 -3.566,5.512 -7.781,12.105 -13.24,19.995 l 0,0 29.452,-18.428 0,0 c 0.811,-3.351 2.486,-6.053 5.027,-8.539 2.593,-2.54 5.728,-4.432 9.996,-6.106 l 0,0 c -0.811,-5.566 0.433,-11.349 3.944,-17.347 3.46,-6.323 11.133,-14.916 16.971,-18.915 5.781,-4.053 14.05,-6.323 17.509,-4.485 3.135,1.837 3.729,8.971 1.783,15.563 -2.161,6.485 -6.593,13.943 -13.943,23.022 l 0,0 3.243,1.837 0,0 c 3.513,-2.864 7.62,-4.755 12.321,-6.106 4.701,-1.351 11.674,-2.702 15.888,-1.783 4.162,0.811 7.242,3.566 8.216,6.593 0.594,2.918 -0.217,7.999 -3.893,11.079 -3.891,2.864 -9.89,5.08 -18.59,6.431 l 0,0 c 0.541,2.107 0.541,3.783 0,5.025 -0.541,1.081 -1.621,1.729 -3.242,1.946 l 0,0 c 2.216,2.918 3.512,5.944 4.107,9.295 0.486,3.243 1.026,7.458 -1.08,10.376 -2.378,2.756 -8.81,6.214 -12.647,6.431 -4.105,0 -8.322,-3.08 -10.754,-5.512 -2.431,-2.485 -3.241,-5.458 -3.026,-9.133 l 0,0 c -4.701,-0.271 -8.7,-0.811 -11.997,-1.621 -3.513,-0.864 -6.052,-2 -8.214,-3.405 l 0,0 c -8.431,5.458 -15.726,9.998 -22.697,13.619 -6.916,3.566 -13.023,6.052 -18.535,7.673 l 0,0 c 1.134,4.756 0.756,8.431 -0.92,11.241 -1.782,2.81 -4.863,4.323 -9.456,5.187 l 0,0 c 0.378,5.621 -0.218,10.646 -2,15.077 -1.837,4.486 -2.811,9.296 -8.539,11.295 -5.836,1.891 -14.537,1.567 -26.102,-0.378 l 0,0 c 0,1.729 -0.27,3.513 -0.378,5.35 -0.163,1.729 -0.594,3.514 -0.865,5.35 l 0,0 c 5.62,-1.621 11.619,-2.053 18.212,-1.08 6.539,0.918 15.186,3.782 20.752,6.484 5.351,2.595 11.078,5.566 11.782,8.917 0.378,3.134 -7.783,7.024 -8.216,9.998 -0.378,2.702 5.08,4.484 5.729,6.81 0.486,2.215 0.054,4.43 -2.541,6.43 -2.919,1.784 -11.456,2.432 -13.942,4.648 -2.486,2.054 0.433,5.62 -0.865,8.376 -1.621,2.648 -4.323,5.891 -7.89,8.052 -3.621,2.054 -9.133,2.918 -13.187,4.271 -4.16,1.134 -9.511,1.241 -11.456,3.025 -2,1.729 -0.865,4.269 -0.54,7.188 0.216,2.756 2.053,6.971 1.945,9.296 -0.217,2.052 -0.864,2.647 -3.188,3.891 -2.432,1.243 -6.377,2.378 -11.619,3.621 l 0,0 c 1.243,1.891 1.243,3.836 0,6.43 -1.352,2.432 -3.836,5.242 -7.674,8.431 l 0,0 c 2.54,0.702 4.485,1.458 6.053,2.486 1.459,0.864 2.541,1.999 3.025,3.188 l 0,0 c 3.298,-2.433 7.081,-3.621 11.998,-3.567 4.81,-0.054 11.889,0.648 16.645,3.567 4.702,2.81 9.565,8.809 11.079,13.401 1.189,4.647 -0.541,9.674 -3.081,13.619 -2.702,3.458 -7.728,5.729 -12.159,8.052 -4.594,2.27 -9.295,4.863 -14.105,5.674 -4.916,0.486 -10.158,0.162 -14.481,-1.567 -4.217,-1.729 -8.053,-4.538 -11.079,-8.429 l 0,0 c -2.594,2.052 -5.188,3.728 -8.376,5.024 -3.242,1.189 -5.242,2.486 -10.376,2.648 -5.35,0.162 -12.97,0.162 -20.536,-2.108 -7.835,-2.594 -17.617,-8.051 -24.318,-12.861 -6.647,-4.918 -11.295,-10.213 -14.808,-16.104 -3.729,-6.105 -5.944,-13.941 -6.431,-19.13 -0.486,-5.242 0.703,-9.295 3.567,-11.942 2.648,-2.704 9.241,-2.757 12.484,-4.323 2.972,-1.73 3.999,-3.893 5.566,-5.892 1.458,-2.106 2.81,-4.052 3.188,-6.432 0.215,-2.431 -0.433,-5.24 -1.946,-8.214 l 0,0 c -4.485,-0.811 -9.295,-2.378 -14.645,-4.105 -5.35,-1.947 -13.996,-4.054 -17.185,-6.973 -3.351,-3.188 -2.648,-7.242 -2.486,-10.915 0.108,-3.621 0.918,-7.134 2.865,-10.539 l 0,0 c 1.188,-1.999 1.188,-3.729 0,-5.403 -1.459,-1.784 -4.864,-2.973 -7.512,-4.811 -2.648,-1.891 -6.647,-3.783 -7.836,-6.268 -1.351,-2.596 -0.865,-6.324 0,-9.08 0.756,-2.973 2.107,-5.458 4.269,-8.052 l 0,0 c -0.54,-3.512 -2.918,-6.485 -7.133,-8.7 -4.377,-2.378 -11.079,-3.297 -18.428,-5.027 -7.512,-1.783 -19.131,-2.054 -25.886,-6.053 -6.809,-4.214 -11.294,-12.32 -14.483,-18.913 -3.512,-6.701 -5.404,-19.726 -5.025,-20.752 0.432,-1.134 3.836,9.729 7.728,14.484 3.729,4.593 7.89,10.97 15.185,13.942 7.404,2.972 19.779,3.297 28.588,3.892 8.701,0.432 16.591,-3.459 23.237,-0.865 6.485,2.594 11.781,7.62 15.888,15.888 l 0,0 c 3.892,-1.73 8.16,-2.756 13.024,-2.865 4.863,-0.215 9.889,0.326 15.726,1.622 l 0,0 c 0.812,-2.865 1.243,-5.404 1.081,-8.051 -0.27,-2.702 -0.919,-5.134 -2.162,-7.512 l 0,0 c -6.863,-2.54 -12.807,-5.566 -17.833,-9.295 -5.081,-3.729 -10.16,-7.025 -12.538,-13.024 -2.432,-6.269 -3.351,-14.159 -2.324,-24.103 l 0,0 c -7.62,-4.107 -13.997,-8.646 -19.131,-13.618 -5.242,-5.08 -9.025,-10.484 -11.781,-16.428 l 0,0 c -2.973,2.594 -5.62,4.214 -8.755,4.647 -3.08,0.433 -6.161,-0.216 -9.457,-1.945 l 0,0 c -0.756,2.594 -2.378,4.972 -4.648,7.133 -2.431,2.054 -5.89,5.566 -9.133,5.728 -3.351,0.055 -8.754,-2.972 -10.16,-5.35 -1.458,-2.647 -0.756,-6.755 1.243,-9.835 1.837,-3.243 4.917,-6.215 9.458,-9.133 l 0,0 c -1.027,-0.541 -1.783,-1.352 -2.486,-2 -0.756,-0.703 -1.296,-1.676 -1.621,-2.486 l 0,0 C 24.194,84.804 19.383,85.939 15.277,85.723 11.062,85.237 7.063,83.291 6.198,80.697 5.387,78.1 6.36,72.912 10.143,70.317 13.71,67.561 19.6,65.615 27.814,64.264 l 0,0 c -0.756,-0.757 -1.621,-1.946 -2.162,-3.567 -0.648,-1.621 -1.188,-3.783 -1.621,-6.269 l 0,0 C 17.384,54.698 12.358,53.563 8.305,51.24 4.252,48.7 0.469,44.215 0.091,40.108 -0.45,35.893 2.091,29.57 5.657,26.76 9.17,23.949 16.844,22.869 21.383,23.517 c 4.323,0.703 7.89,4.323 10.7,7.133 2.648,2.648 4.324,6.485 5.891,8.593 1.513,1.729 2.377,2.81 3.404,3.026 0.919,0.325 1.568,-0.053 2.162,-1.134 l 0,0 z m 105.435,247.29 c 3.729,1.567 7.511,3.136 11.942,4.486 4.27,1.352 8.917,2.595 13.943,3.729 l 0,0 c -0.92,2.756 -2.324,4.593 -4.648,6.105 -2.378,1.298 -6.81,1.784 -8.916,2.325 -2.216,0.539 -2.271,-0.541 -4.107,0.702 -1.946,1.135 -4.323,3.025 -7.133,5.89 l 0,0 c -0.92,-1.352 -1.946,-2.973 -3.081,-4.646 -1.297,-1.784 -2.648,-3.621 -4.27,-5.729 l 0,0 c 3.404,-2.215 5.404,-4.485 6.593,-6.592 0.973,-2.108 0.865,-4.27 -0.323,-6.27 l 0,0 z"
       style="fill-rule:evenodd;stroke:#000000;stroke-width:0.036;stroke-miterlimit:10"
       id="path7"
       inkscape:connector-curvature="0" /><path
       d="m 128.06,268.701 c 0.973,-0.323 2.595,0.163 4.271,1.243 1.891,1.135 4.322,2.972 6.268,5.513 1.514,2.217 2.271,6.214 3.729,8.268 1.459,1.945 2.81,3.135 4.647,3.566 l 0,0 c 0.703,2.163 0.162,4.217 -1.027,6.595 -1.351,2.215 -3.62,4.538 -6.809,6.971 l 0,0 c 2.864,3.297 5.296,6.377 7.512,9.456 2.216,2.974 3.783,5.838 5.351,8.594 l 0,0 c -4.378,1.783 -6.972,3.135 -8.215,4.269 -1.297,1.081 -1.351,2.486 1.081,2.163 2.485,-0.596 8.268,-4.217 13.186,-4.811 4.81,-0.541 10.646,0.271 15.024,1.404 4.161,0.92 6.971,2.433 9.673,4.323 2.432,1.839 4.161,3.999 5.188,6.054 0.973,1.621 1.243,3.079 1.027,5.024 -0.324,2 -1.135,4.378 -2.648,7.134 l 0,0 c 0.055,-1.674 -0.054,-3.296 -0.54,-4.647 -0.648,-1.566 -1.838,-4.053 -2.324,-3.944 -0.595,0 -0.757,2.593 -0.702,4.269 0.054,1.567 1.297,3.46 1.026,5.027 -0.648,1.404 -1.621,2.215 -3.351,3.025 -1.729,0.757 -3.62,0.919 -6.269,1.08 l 0,0 c 1.188,-2.106 1.783,-3.944 1.783,-5.728 0,-1.891 -0.648,-3.297 -2.161,-4.81 -1.729,-1.729 -7.188,-3.999 -7.836,-4.107 -0.757,-0.161 2.432,2.27 3.729,3.729 1.135,1.404 3.188,2.81 3.242,4.864 -0.162,1.891 -1.135,5.457 -3.566,6.755 -2.595,1.135 -5.242,1.729 -11.078,0.539 -6.053,-1.297 -17.023,-3.999 -24.156,-7.673 -7.134,-3.783 -13.619,-9.295 -18.213,-14.483 -4.863,-5.242 -8.213,-11.187 -9.835,-16.59 -1.675,-5.621 -1.621,-13.133 0.162,-16.483 1.729,-3.404 6.539,-2.216 9.836,-3.729 2.972,-1.729 6.592,-3.892 8.754,-6.27 2.108,-2.432 3.351,-5.782 3.945,-8.377 0.485,-2.755 0.323,-5.565 -0.704,-8.213 l 0,0 z"
       style="fill:#b9b9b9;fill-rule:evenodd;stroke:#000000;stroke-width:0.036;stroke-miterlimit:10"
       id="path9"
       inkscape:connector-curvature="0" /><path
       d="m 177.562,296.911 c 3.621,0.055 7.188,0 10.701,-0.163 3.458,-0.161 6.862,-0.539 10.213,-0.917 l 0,0 c 1.081,1.728 0.757,3.891 -0.756,6.269 -1.622,2.323 -4.595,5.079 -8.918,8.052 l 0,0 c 3.567,1.135 6.432,2.378 8.594,3.945 2.161,1.621 3.458,3.08 4.106,5.188 l 0,0 c 4.485,-3.297 9.187,-4.918 14.105,-4.863 4.81,0 11.348,2.593 15.022,4.646 3.404,1.784 5.404,3.729 6.593,6.648 1.188,2.756 1.567,7.24 0.919,10.321 -0.702,2.972 -2.432,5.35 -5.188,7.35 l 0,0 c 0.054,-2.378 -0.055,-4.647 -0.54,-6.81 -0.541,-2.27 -1.027,-4.756 -2.325,-6.214 -1.513,-1.784 -5.565,-3.352 -5.89,-3.243 -0.27,0.163 2.973,2.108 4.107,3.945 0.865,1.675 1.729,3.62 1.945,6.053 0,2.432 0.27,6.214 -0.865,8.431 -1.243,1.891 -3.891,2.811 -5.89,3.566 -2.108,0.702 -4.054,0.811 -6.269,0.54 l 0,0 c 1.891,-3.567 2.593,-6.647 2.323,-9.673 -0.486,-3.188 -3.458,-7.459 -4.323,-8.215 -0.919,-0.811 -0.864,2.107 -0.486,3.729 0.433,1.458 2.108,2.918 2.323,5.188 0,2.215 -1.404,5.134 -2.16,7.512 -0.974,2.162 -1.082,4.432 -3.027,5.351 -2.215,0.757 -5.134,0.27 -8.971,-1.027 -3.729,-1.459 -8.322,-3.891 -13.564,-7.512 l 0,0 c 1.351,-2.323 2.215,-4.701 2.161,-7.349 0,-2.864 -0.161,-5.783 -2.161,-8.755 -2.324,-3.027 -6.593,-6.918 -10.538,-8.755 -3.944,-1.838 -8.593,-2.325 -12.699,-2.486 -4.216,-0.324 -8.322,-0.217 -12.321,0.54 l 0,0 -2.324,-5.404 0,0 c 2.107,-2.486 4.647,-3.999 7.836,-5.134 3.026,-1.188 7.836,0.541 10.916,-1.243 3.082,-1.891 5.46,-4.917 7.351,-9.511 l 0,0 z"
       style="fill:#b9b9b9;fill-rule:evenodd;stroke:#000000;stroke-width:0.036;stroke-miterlimit:10"
       id="path11"
       inkscape:connector-curvature="0" /><path
       d="m 340.334,102.039 c 2.54,-1.945 5.62,-3.296 9.674,-4.269 3.944,-1.135 10.321,-2.432 14.104,-1.784 3.729,0.486 6.973,3.296 7.836,5.512 0.541,2.053 -0.539,5.242 -3.891,7.512 -3.566,2.216 -8.916,4.053 -16.645,5.728 l 0,0 c -2.432,-4.215 -4.647,-7.295 -6.432,-9.457 -1.835,-2.16 -3.458,-3.242 -4.646,-3.242 l 0,0 z"
       style="fill:#b9b9b9;fill-rule:evenodd;stroke:#000000;stroke-width:0.036;stroke-miterlimit:10"
       id="path13"
       inkscape:connector-curvature="0" /><path
       d="m 256.895,141.003 c 1.243,2 2.432,3.783 3.566,5.35 1.026,1.567 2.054,2.756 2.864,3.783 l 0,0 c 5.782,-2.162 11.78,-4.917 18.59,-8.268 6.701,-3.513 13.835,-7.62 21.617,-12.321 l 0,0 c -0.919,-1.243 -1.297,-2.27 -0.919,-2.864 0.27,-0.703 1.782,-1.675 2.864,-1.027 0.918,0.54 0.972,3.188 2.863,4.432 1.784,1.08 4.756,1.783 7.674,2.323 2.811,0.541 5.729,0.703 8.972,0.703 l 0,0 c -0.162,-1.459 -0.108,-2.703 0.161,-3.729 0.218,-1.135 0.703,-3.405 1.243,-2.864 0.216,0.486 0.379,3.351 0.703,5.89 0.162,2.486 0.108,6.107 1.297,8.593 1.297,2.378 3.297,4.432 6.214,5.35 2.703,0.702 7.026,0.324 9.837,-0.702 2.647,-1.352 5.025,-3.946 6.105,-6.107 0.702,-2.216 0.108,-4.269 -0.539,-6.593 -0.596,-2.486 -1.621,-4.647 -2.864,-7.295 l 0,0 c -1.676,1.081 -3.891,1.729 -6.432,1.945 -2.756,0.163 -5.729,0.757 -9.133,-0.918 -3.675,-2 -9.781,-7.566 -11.456,-9.62 -1.676,-2.162 0.702,-2.81 2.16,-1.945 1.46,0.811 3.676,5.35 6.432,7.133 2.54,1.73 5.457,2.541 8.755,2.648 3.079,-0.271 8.16,-1.676 9.997,-3.567 1.622,-2.054 1.243,-5.566 0.541,-7.836 -0.703,-2.323 -2.325,-4.431 -4.432,-5.728 -2.377,-1.351 -5.404,-2.054 -8.431,-2.324 -3.188,-0.378 -6.755,-0.108 -9.457,0.378 -2.81,0.271 -5.783,2.432 -6.431,2.107 -0.648,-0.486 0.108,-3.296 2.486,-4.269 2.378,-1.027 6.105,-1.622 11.617,-1.783 l 0,0 c -1.404,-0.757 -2.052,-1.784 -1.945,-2.865 0,-1.189 0.757,-1.675 2.486,-3.945 1.73,-2.432 5.134,-6.377 7.512,-10.16 2.162,-3.891 4.432,-8.971 5.351,-12.538 0.648,-3.783 0.702,-7.998 -1.082,-9.295 -1.836,-1.297 -5.944,-0.757 -9.996,1.621 -4.377,2.162 -10.971,7.404 -15.186,11.998 -4.323,4.701 -8.106,10.591 -9.674,15.347 -1.567,4.432 -1.567,8.376 0.217,11.619 l 0,0 c -4.81,2.81 -8.322,5.188 -10.754,7.133 -2.595,1.837 -3.082,2.865 -3.729,4.323 -0.648,1.351 -0.702,2.648 -0.379,4.107 0.055,1.406 1.514,3.621 1.459,4.593 -0.216,0.865 -1.296,1.459 -2,0.757 -0.756,-0.919 -1.458,-2.81 -2.106,-5.891 l 0,0 c -9.782,6.324 -17.455,11.458 -23.616,15.186 -6.159,3.784 -10.43,5.946 -13.022,7.135 l 0,0 z"
       style="fill:#b9b9b9;fill-rule:evenodd;stroke:#000000;stroke-width:0.036;stroke-miterlimit:10"
       id="path15"
       inkscape:connector-curvature="0" /><path
       d="m 84.071,198.88 c 1.081,-1.352 2.864,-2.973 5.566,-4.432 2.647,-1.567 5.836,-3.188 9.997,-4.864 l 0,0 c -4.755,-6.971 -9.403,-11.348 -13.942,-13.563 -4.594,-2.216 -8.376,0.324 -13.402,0.54 -5.296,0.054 -10.538,0.54 -16.969,0 -6.593,-0.54 -15.132,-0.811 -21.455,-3.729 -6.377,-3.405 -13.402,-13.132 -15.888,-15.024 -2.594,-1.675 0.055,1.621 1.243,4.27 1.297,2.324 3.188,7.188 5.891,10.213 2.324,2.918 3.026,5.675 8.971,7.835 6.053,2 19.833,3.134 26.967,4.647 6.809,1.352 10.591,1.676 14.483,4.108 3.89,2.434 6.538,5.568 8.538,9.999 l 0,0 z"
       style="fill:#b9b9b9;fill-rule:evenodd;stroke:#000000;stroke-width:0.036;stroke-miterlimit:10"
       id="path17"
       inkscape:connector-curvature="0" /><path
       d="M 115.522,108.74 C 108.064,105.389 100.931,101.066 93.906,95.338 86.934,89.609 80.072,82.908 73.533,74.802 l 0,0 c -3.081,2.054 -4.54,2.865 -5.188,2.865 -0.54,-0.216 0.973,-2.324 1.838,-3.405 0.756,-1.189 1.567,-2.324 2.647,-3.405 l 0,0 c 0.541,-2 0.919,-3.783 0.703,-5.35 -0.216,-1.783 -0.811,-3.081 -1.784,-4.485 l 0,0 -8.214,-5.891 0,0 c -1.783,-2.54 -2.81,-4.593 -2.865,-6.593 -0.162,-1.945 0.055,-3.404 2.325,-5.188 2.161,-2.053 8.106,-4.106 10.754,-6.592 2.54,-2.648 3.62,-5.513 4.269,-8.593 0.378,-3.188 0.594,-8.052 -1.405,-9.998 -2.216,-1.945 -7.457,-2 -10.916,-1.622 -3.567,0.108 -7.133,1.405 -9.673,3.027 -2.702,1.675 -4.27,4.377 -5.512,6.647 -1.352,1.945 -1.676,3.351 -2,5.674 -0.379,2.27 0.216,5.999 -0.487,8.052 -1.027,2 -3.134,3.242 -4.863,3.945 -1.892,0.541 -3.567,1.135 -5.891,-0.703 C 34.893,41.08 32.57,35.026 29.057,32.108 25.058,29.136 19.492,25.461 15.276,25.677 11.006,25.785 6.467,30.162 4.576,33.189 2.685,36 2.793,40.648 3.874,43.35 c 0.811,2.703 2.81,4.432 6.431,6.053 3.674,1.513 8.701,2.269 15.51,2.702 l 0,0 c 0.756,3.567 1.675,6.161 2.54,8.593 0.865,2.216 1.892,3.945 2.864,4.972 l 0,0 c -6.647,1.135 -11.781,2.702 -15.402,4.486 -3.837,1.837 -5.891,4.215 -6.755,6.269 -0.918,1.837 0.216,4.323 1.945,5.35 1.783,0.865 4.594,1.243 8.431,0.703 3.621,-0.541 7.944,-1.784 13.187,-3.729 l 0,0 c -0.271,1.027 -0.163,2.161 0.918,3.404 1.027,1.135 2.432,2.378 4.81,3.729 l 0,0 c -3.243,2 -5.675,4.377 -7.891,7.133 -2.269,2.703 -4.972,6.377 -4.972,8.971 -0.108,2.324 2.486,4.972 4.648,5.675 2.054,0.649 5.242,-0.378 7.512,-1.405 2.054,-1.243 3.837,-2.918 5.35,-5.026 1.459,-2.107 2.648,-4.539 3.567,-7.511 l 0,0 c 2.054,2.27 4.107,3.458 6.81,3.783 2.432,0.162 6.322,-0.271 8.538,-2.162 2.162,-2.054 3.783,-8.269 4.864,-9.295 0.811,-1.081 1.405,1.404 1.567,2.864 0.055,1.405 -1.188,2.486 -0.162,5.566 1.189,2.918 3.242,8.16 6.592,11.943 3.026,3.621 7.674,7.026 11.835,9.998 3.999,2.864 8.106,4.917 12.321,6.809 l 0,0 c 1.675,0.703 3.837,0.648 6.052,-0.162 2.216,-1.027 5.621,-2.378 7.512,-4.863 1.73,-2.434 2.81,-5.515 3.026,-9.46 l 0,0 z"
       style="fill:#b9b9b9;fill-rule:evenodd;stroke:#000000;stroke-width:0.036;stroke-miterlimit:10"
       id="path19"
       inkscape:connector-curvature="0" /><path
       d="m 47.647,56.915 c -1.296,1.892 -3.945,5.08 -4.81,9.133 -0.811,3.837 -0.864,11.835 -0.378,13.781 0.324,1.729 1.297,-1.189 2.324,-2.703 0.811,-1.783 1.405,-4.863 3.026,-6.971 1.514,-2.108 5.566,-4.648 6.106,-5.566 0.325,-1.082 -2.324,-1.514 -3.783,-0.487 -1.784,0.918 -4.864,6.323 -5.512,6.215 -0.649,-0.325 0.433,-4.864 1.783,-7.133 1.243,-2.378 5.026,-5.026 5.729,-6.269 0.541,-1.405 -1.297,-1.459 -2,-1.405 -0.702,-0.054 -1.458,-0.486 -2.485,1.405 l 0,0 z"
       style="fill-rule:evenodd;stroke:#000000;stroke-width:0.036;stroke-miterlimit:10"
       id="path21"
       inkscape:connector-curvature="0" /><path
       d="m 187.722,36.433 c 1.621,-2.162 4.647,-3.945 9.296,-5.35 4.593,-1.567 12.752,-3.188 18.211,-3.404 5.188,-0.378 8.971,0.541 13.402,1.946 4.377,1.297 8.863,3.404 13.24,6.106 l 0,0 c 0.811,-4.594 0.378,-9.025 -1.082,-14.104 -1.729,-5.134 -4.538,-12.538 -8.214,-15.726 -3.729,-3.188 -8.809,-4.054 -13.564,-3.621 -4.81,0.162 -10.591,2.594 -14.86,5.188 -4.432,2.378 -7.998,4.972 -10.7,9.836 -2.81,4.808 -4.649,11.185 -5.729,19.129 l 0,0 z"
       style="fill:#b9b9b9;fill-rule:evenodd;stroke:#000000;stroke-width:0.036;stroke-miterlimit:10"
       id="path23"
       inkscape:connector-curvature="0" /><path
       d="m 170.212,74.479 c -0.054,-5.837 1.243,-11.349 4.107,-16.969 2.919,-5.728 7.565,-12.105 12.699,-16.428 4.972,-4.27 10.322,-7.512 16.646,-9.133 6.214,-1.784 13.078,-2.432 20.157,-1.082 7.024,1.351 14.969,5.729 20.913,8.971 5.729,3.026 9.943,7.35 12.862,9.62 2.701,2.107 3.891,3.566 3.566,3.783 l 0,0 c -2.701,1.405 -3.999,3.836 -4.107,7.728 -0.216,3.836 0.703,10.646 3.405,15.023 2.594,4.215 8.7,7.458 12.484,10.376 3.782,2.702 6.808,4.864 9.672,6.268 l 0,0 c 0.379,2.756 -0.539,6.864 -3.188,12.322 -2.864,5.404 -7.89,14.429 -12.375,20.211 -4.593,5.62 -9.024,9.998 -13.943,13.727 -4.862,3.567 -10.97,7.025 -15.184,8.052 -4.432,0.865 -8.053,-0.378 -11.08,-2.485 -3.241,-2.324 -5.241,-5.837 -7.457,-10.538 -2.378,-4.81 -4.27,-10.268 -6.106,-17.186 l 0,0 c -3.675,0.973 -6.755,2.324 -9.458,4.648 -2.863,2.162 -6.377,7.458 -6.593,8.592 -0.27,0.865 3.459,-1.621 5.352,-2.863 1.782,-1.567 3.512,-3.945 5.188,-5.026 1.459,-1.08 2.702,-1.351 3.728,-1.027 l 0,0 c 0.541,4.81 2.163,9.187 4.647,13.727 2.378,4.432 5.838,8.647 10.16,12.862 l 0,0 c -3.079,4.323 -6.485,8.16 -10.862,10.916 -4.377,2.702 -10.7,4.918 -15.023,6.052 -4.432,1.135 -7.35,1.567 -11.24,1.082 -3.945,-0.541 -8.322,-2.108 -12.7,-4.486 l 0,0 c 1.081,-1.945 0.487,-5.458 -1.782,-10.538 -2.433,-5.296 -7.62,-13.889 -11.781,-20.157 -4.216,-6.485 -8.7,-13.457 -12.861,-17.347 -4.162,-3.783 -8.431,-5.89 -12.376,-5.729 l 0,0 c 1.405,-1.351 1.945,-3.891 1.621,-7.836 -0.486,-4.215 -3.188,-9.944 -3.729,-15.942 -0.702,-5.891 1.027,-12.375 0,-19.455 C 134.386,56.7 132.602,46 128.765,40.001 124.604,34.003 118.389,30.166 111.796,28.922 105.149,27.626 97.853,29.084 89.477,32.867 l 0,0 c 1.514,-2.973 3.675,-5.35 7.134,-7.35 3.242,-2.216 7.134,-4.107 12.7,-4.81 5.458,-0.702 13.078,-1.296 20.157,0.919 6.917,2.107 15.618,6.161 21.293,11.565 5.296,5.134 9.024,14.05 11.781,20.049 2.81,6.052 3.836,12.105 5.188,15.888 1.293,3.513 2.049,5.296 2.482,5.351 l 0,0 z"
       style="fill:#b9b9b9;fill-rule:evenodd;stroke:#000000;stroke-width:0.036;stroke-miterlimit:10"
       id="path25"
       inkscape:connector-curvature="0" /><path
       d="m 191.126,45.566 c 0.432,-1.405 3.459,-4.863 5.351,-5.566 1.676,-0.702 3.297,-0.162 4.864,1.621 1.621,1.784 3.944,7.566 4.269,8.593 0,0.811 -2.433,-2.54 -3.566,-3.621 -1.298,-1.243 -2.486,-3.351 -3.784,-3.188 -1.35,0.108 -3.188,3.891 -4.269,4.27 -1.299,0.161 -3.298,-0.811 -2.865,-2.109 l 0,0 z"
       style="fill-rule:evenodd;stroke:#000000;stroke-width:0.036;stroke-miterlimit:10"
       id="path27"
       inkscape:connector-curvature="0" /><path
       d="m 180.426,85.773 c -0.919,-3.945 -0.919,-8.052 0,-12.538 0.919,-4.594 2.973,-10.97 5.513,-14.104 2.216,-3.243 6.106,-4.918 8.754,-5.026 2.486,-0.27 4.703,0.271 6.648,4.108 1.945,3.945 3.295,9.997 4.646,18.968 l 0,0 c 1.459,-0.324 2.162,-0.27 2.108,0.162 -0.163,0.216 -1.189,0.594 -2.864,2.162 -1.784,1.459 -6.432,6.755 -7.512,7.134 -1.298,0.108 0.972,-4.324 0.378,-5.188 -0.702,-1.027 -1.838,-1.243 -4.269,0 -2.649,1.135 -7.026,3.999 -11.079,7.134 -4.161,3.026 -11.24,10.051 -13.078,11.078 -1.945,0.756 -0.162,-3.351 1.783,-5.674 1.839,-2.433 4.757,-5.028 8.972,-8.216 l 0,0 z"
       style="fill-rule:evenodd;stroke:#000000;stroke-width:0.036;stroke-miterlimit:10"
       id="path29"
       inkscape:connector-curvature="0" /><path
       d="m 182.533,84.313 c 1.567,-1.351 4,-2.594 7.512,-3.945 3.352,-1.459 7.783,-2.81 13.078,-4.269 l 0,0 -0.378,-6.81 0,0 c -1.514,2.918 -3.135,4.755 -4.647,5.728 -1.729,0.756 -3.891,0.865 -4.81,-0.324 -1.135,-1.514 -1.298,-5.35 -0.919,-7.35 0.378,-2 1.729,-3.837 3.405,-4.27 1.513,-0.378 3.403,-0.054 5.89,1.567 l 0,0 c -0.541,-2.972 -1.621,-5.188 -3.025,-6.43 -1.676,-1.352 -3.514,-2.054 -5.729,-1.243 -2.377,0.811 -5.188,2.702 -6.971,5.89 -1.945,3.026 -3.188,9.187 -3.729,12.862 -0.595,3.57 -0.487,6.433 0.323,8.594 l 0,0 z"
       style="fill:#ffffff;fill-rule:evenodd;stroke:#000000;stroke-width:0.036;stroke-miterlimit:10"
       id="path31"
       inkscape:connector-curvature="0" /><path
       d="m 196.691,66.967 c -0.756,0.216 -2.106,1.945 -1.999,2.702 -0.053,0.595 1.352,1.838 2.162,1.622 0.648,-0.54 2.323,-2.648 2.323,-3.405 0.055,-0.811 -1.945,-1.19 -2.486,-0.919 l 0,0 z"
       style="fill:#ffffff;fill-rule:evenodd;stroke:#000000;stroke-width:0.036;stroke-miterlimit:10"
       id="path33"
       inkscape:connector-curvature="0" /><path
       d="m 244.032,96.635 c 0.433,1.945 3.944,4.377 5.729,5.026 1.676,0.54 4.054,0.54 4.432,-1.243 0,-1.837 -1.513,-8.106 -2.864,-9.835 -1.298,-1.838 -3.134,-2.325 -4.269,-1.243 -1.352,1.027 -3.406,5.134 -3.028,7.295 l 0,0 z"
       style="fill-rule:evenodd;stroke:#000000;stroke-width:0.036;stroke-miterlimit:10"
       id="path35"
       inkscape:connector-curvature="0" /><path
       d="m 247.221,95.392 c 0.378,1.027 2.701,3.999 3.405,3.945 0.594,-0.271 0.378,-3.621 0.161,-4.647 -0.433,-1.297 -1.945,-1.892 -2.484,-1.784 -0.811,0.054 -1.461,1.297 -1.082,2.486 l 0,0 z"
       style="fill:#ffffff;fill-rule:evenodd;stroke:#000000;stroke-width:0.036;stroke-miterlimit:10"
       id="path37"
       inkscape:connector-curvature="0" /><path
       d="m 249.761,109.498 c -0.864,0.864 -1.297,3.08 -1.08,4.323 0.053,0.973 0.702,2.162 1.945,2.107 1.188,-0.162 4.377,-1.675 5.188,-2.864 0.324,-1.189 -0.756,-3.783 -1.783,-4.27 -1.19,-0.54 -3.299,-0.378 -4.27,0.704 l 0,0 z"
       style="fill-rule:evenodd;stroke:#000000;stroke-width:0.036;stroke-miterlimit:10"
       id="path39"
       inkscape:connector-curvature="0" /><path
       d="m 252.085,110.578 c -0.596,-0.054 -1.353,0.973 -1.459,1.622 -0.271,0.54 0.106,1.621 0.539,1.783 0.433,-0.108 2.108,-0.865 2.324,-1.459 0.054,-0.595 -0.972,-2.001 -1.404,-1.946 l 0,0 z"
       style="fill:#ffffff;fill-rule:evenodd;stroke:#000000;stroke-width:0.036;stroke-miterlimit:10"
       id="path41"
       inkscape:connector-curvature="0" /><path
       d="m 232.575,115.442 c 0.163,1.189 2,2.594 3.026,3.188 0.919,0.54 2.216,0.378 2.864,-0.487 0.486,-1.189 1.027,-4.755 0.378,-5.89 -0.756,-1.136 -3.674,-1.405 -4.593,-0.811 -1.134,0.487 -1.89,2.648 -1.675,4 l 0,0 z"
       style="fill-rule:evenodd;stroke:#000000;stroke-width:0.036;stroke-miterlimit:10"
       id="path43"
       inkscape:connector-curvature="0" /><path
       d="m 234.738,114.09 c -0.379,0.325 0.106,1.567 0.594,2.054 0.486,0.378 1.297,0.756 1.783,0.487 0.216,-0.541 0.433,-2.216 0.055,-2.703 -0.433,-0.54 -2.217,-0.269 -2.432,0.162 l 0,0 z"
       style="fill:#ffffff;fill-rule:evenodd;stroke:#000000;stroke-width:0.036;stroke-miterlimit:10"
       id="path45"
       inkscape:connector-curvature="0" /><path
       d="m 263.704,54.321 c -2.433,-0.108 -3.729,1.514 -4.108,4.648 -0.541,3.296 0.163,9.943 2.108,14.104 2,3.783 5.782,6.106 9.673,9.079 3.783,2.973 7.998,5.512 12.862,8.215 l 0,0 c 5.89,-3.513 9.565,-7.566 11.24,-11.943 1.459,-4.486 0.865,-10.754 -1.784,-14.645 -2.917,-4.107 -9.348,-7.566 -14.481,-9.133 -5.134,-1.622 -10.107,-1.73 -15.51,-0.325 l 0,0 z"
       style="fill:#4e4e4e;fill-rule:evenodd;stroke:#000000;stroke-width:0.036;stroke-miterlimit:10"
       id="path47"
       inkscape:connector-curvature="0" /><path
       d="m 110.875,56.429 c 1.134,5.674 3.188,11.079 5.944,16.807 2.756,5.566 7.241,12.97 10.538,16.807 3.027,3.675 7.35,5.458 8.377,5.35 0.973,-0.216 -1.892,-2.918 -2.162,-6.431 -0.379,-3.621 0.108,-9.403 0,-14.645 -0.216,-5.566 0.271,-11.619 -1.242,-17.509 -1.73,-6.161 -5.675,-13.132 -8.917,-17.348 -3.621,-4.161 -7.513,-5.728 -11.241,-6.971 -3.729,-1.296 -6.484,-1.243 -10.538,-0.702 -4.323,0.27 -10.484,1.189 -14.321,3.405 -3.945,2.323 -6.593,5.998 -8.755,10.159 -2.377,3.945 -3.783,8.485 -4.809,13.619 l 0,0 c 1.026,2.107 1.675,4.107 1.945,6.593 0.162,2.377 0.108,4.863 -0.378,7.673 l 0,0 c 0.811,2.594 3.783,6.215 9.511,11.078 5.674,4.864 13.51,10.538 24.102,17.671 l 0,0 c 2.757,-0.756 5.729,-1.027 8.917,-1.027 3.242,0.054 6.863,0.325 9.835,1.243 2.756,0.811 4.756,2.054 6.432,3.729 l 0,0 c 0.647,-0.541 1.135,-1.297 1.243,-2.486 0.107,-1.189 0,-2.81 -0.325,-4.648 l 0,0 c -3.999,0.865 -8.16,0.216 -12.699,-1.945 -4.702,-2.323 -12.646,-9.619 -14.267,-11.078 -1.675,-1.351 2.216,0.54 4.972,2.324 2.647,1.459 8.484,5.566 11.456,6.917 2.864,1.243 4.701,1.622 5.729,0.919 l 0,0 C 122.656,90.259 117.36,84.044 114.118,77.505 110.713,70.75 109.903,63.995 110.875,56.429 l 0,0 z"
       style="fill:#fedfff;fill-rule:evenodd;stroke:#000000;stroke-width:0.036;stroke-miterlimit:10"
       id="path49"
       inkscape:connector-curvature="0" /><path
       d="m 118.765,105.444 c 1.351,-0.648 3.026,-0.811 4.81,-0.702 1.675,-0.054 4.755,-0.216 6.107,1.404 1.405,1.622 2.323,4.432 1.945,8.431 -0.702,3.891 -2.485,10.862 -5.351,14.645 -2.972,3.729 -8.43,6.107 -11.997,7.133 -3.729,0.649 -7.08,-0.756 -9.62,-2.323 -2.594,-1.567 -4.377,-3.837 -5.566,-6.81 l 0,0 c 5.134,-0.594 9.241,-1.891 12.538,-3.891 3.296,-2 5.35,-5.242 6.755,-8.053 1.081,-2.971 1.352,-6.321 0.379,-9.834 l 0,0 z"
       style="fill:#ffffff;fill-rule:evenodd;stroke:#000000;stroke-width:0.036;stroke-miterlimit:10"
       id="path51"
       inkscape:connector-curvature="0" /><path
       d="m 253.651,142.192 c -1.026,1.405 -2.432,2.594 -4.432,3.783 -2.054,1.135 -4.485,2.27 -7.512,3.188 l 0,0 c 3.406,3.027 6.162,5.999 8.053,8.917 1.837,2.81 3.026,5.566 3.35,8.268 l 0,0 c 3.243,-1.081 5.566,-2.324 6.973,-4.323 1.297,-1.945 1.243,-4.81 1.08,-7.133 -0.433,-2.594 -1.676,-5.566 -2.864,-7.674 -1.243,-2.27 -2.863,-3.729 -4.648,-5.026 l 0,0 z"
       style="fill:#ffffff;fill-rule:evenodd;stroke:#000000;stroke-width:0.036;stroke-miterlimit:10"
       id="path53"
       inkscape:connector-curvature="0" /><path
       d="m 174.698,163.106 c 2.323,1.783 5.188,3.026 8.592,3.945 3.459,0.756 7.403,1.783 11.619,1.405 4.107,-0.378 8.322,-1.622 12.862,-3.729 l 0,0 c 2.27,3.836 3.513,7.295 3.728,10.375 0.218,3.134 -0.756,6.214 -2.701,7.999 -2.162,1.458 -6.646,2.106 -9.296,1.296 -2.647,-0.811 -4.917,-2.972 -6.593,-6.269 l 0,0 c -0.811,4.269 -2.756,7.729 -6.431,10.159 -3.783,2.325 -11.133,5.405 -15.186,4.648 -4.215,-0.865 -8.376,-5.351 -9.133,-9.079 -0.811,-3.892 2.215,-9.835 4.485,-13.24 2.002,-3.511 4.757,-5.943 8.054,-7.51 l 0,0 z"
       style="fill:#ffffff;fill-rule:evenodd;stroke:#000000;stroke-width:0.036;stroke-miterlimit:10"
       id="path55"
       inkscape:connector-curvature="0" /><path
       d="m 134.113,110.361 c 1.675,-1.621 3.674,-1.675 6.809,-0.378 3.026,1.134 6.593,3.134 10.917,8.052 3.998,5.025 10.051,15.726 13.563,21.454 3.351,5.404 5.404,8.376 6.972,11.403 1.405,2.811 1.837,4.486 1.945,6.27 0.054,1.621 -0.595,3.188 -1.945,4.485 -1.675,1.027 -4.27,2.162 -7.35,3.188 -3.08,1.189 -9.89,2.54 -10.862,3.405 -1.027,0.486 2.27,0.54 4.269,0.378 1.73,-0.216 3.946,-0.703 6.432,-1.459 l 0,0 c -2.594,5.242 -3.891,9.403 -4.485,13.078 -0.757,3.513 -0.486,5.621 1.242,8.376 1.73,2.647 5.513,7.133 9.674,7.836 4.161,0.541 10.592,-1.946 14.483,-4.108 3.566,-2.269 6.322,-5.295 7.674,-9.079 l 0,0 c 0.812,1.243 2.053,2.324 3.945,3.027 1.782,0.702 4.593,1.188 6.971,1.242 2.215,-0.107 4.215,-0.648 6.214,-1.622 l 0,0 c 1.568,1.622 2.703,3.459 3.405,5.729 0.648,2.162 1.243,4.323 0.541,7.35 -0.864,2.757 -3.351,6.862 -5.188,9.997 -1.839,3.297 -3.838,6.431 -6.216,8.754 -2.594,1.839 -5.295,3.243 -8.971,3.189 -3.891,-0.162 -8.269,-3.296 -13.564,-3.351 -5.458,0.055 -13.132,2.917 -18.049,3.351 -4.919,0.162 -7.566,0.054 -11.079,-1.568 -3.837,-1.728 -7.025,-5.512 -10.159,-8.429 -3.243,-3.297 -6.161,-6.216 -7.729,-9.998 -1.352,-3.892 -1.081,-9.241 -0.864,-12.484 0.107,-3.188 1.405,-4.539 1.405,-6.971 -0.108,-2.703 -0.757,-5.62 -1.945,-8.971 l 0,0 c 1.025,0.378 2.323,0.703 4.106,0.757 1.567,0 7.134,-0.054 6.269,-0.379 -1.027,-0.378 -7.35,-1.08 -11.456,-2.323 -4.161,-1.351 -8.377,-3.243 -12.862,-5.89 -4.54,-3.027 -10.863,-6.81 -13.943,-10.917 -3.297,-4.161 -4.594,-9.458 -5.35,-13.187 -0.919,-3.783 -0.919,-6.755 0,-9.133 l 0,0 c 1.945,2.811 4.269,4.972 6.971,6.269 2.702,1.243 5.674,1.837 8.917,1.567 3.08,-0.433 6.106,-1.352 9.295,-3.351 l 0,0 c -0.216,3.729 0.811,6.647 2.864,8.539 2.162,1.837 8.646,2.864 9.457,2.864 0.433,-0.216 -4.106,-2.324 -5.729,-3.405 -1.566,-1.135 -2.756,-1.837 -3.351,-3.351 -0.864,-1.783 -1.404,-6.161 -0.756,-6.646 0.702,-0.703 2.54,2.162 4.863,3.404 2.216,1.136 4.81,3.352 7.998,3.946 2.973,0.378 9.673,-0.271 9.673,-0.703 -0.27,-0.432 -7.35,-1.296 -10.159,-2.161 -2.864,-1.189 -4.756,-2.378 -6.269,-3.783 -1.514,-1.351 -2.594,-2.648 -3.026,-3.891 l 0,0 c 2.107,-3.459 3.459,-6.864 4.27,-10.214 0.649,-3.51 0.703,-6.699 0.163,-10.158 l 0,0 z"
       style="fill:#7fceff;fill-rule:evenodd;stroke:#000000;stroke-width:0.036;stroke-miterlimit:10"
       id="path57"
       inkscape:connector-curvature="0" /><path
       d="m 211.499,164.295 c 3.08,-1.514 6.054,-3.783 9.134,-6.215 3.079,-2.486 5.836,-5.729 8.917,-9.133 l 0,0 c 2.106,1.027 3.945,1.622 5.728,1.784 1.676,0.162 3.297,-0.216 4.648,-0.918 l 0,0 c 3.025,2.269 5.458,5.134 7.295,8.592 1.784,3.459 3.242,7.728 3.566,12.16 0.055,4.486 -0.972,10.051 -2.484,13.779 -1.515,3.351 -3.027,5.188 -6.595,6.755 -3.891,1.406 -11.187,2.325 -15.401,2.325 -4.269,0.053 -7.457,-0.974 -9.782,-2.486 l 0,0 -3.403,-6.972 0,0 c 0.864,0.541 1.999,0.704 3.403,0.704 1.352,-0.163 4.703,-0.811 4.811,-1.082 0.054,-0.27 -3.513,-0.432 -4.647,-0.702 -1.298,-0.486 -2.378,-1.189 -3.025,-2.108 l 0,0 c 2.377,0 4.322,-0.433 6.051,-1.296 1.622,-0.974 3.838,-3.783 3.946,-4.269 -0.108,-0.54 -1.999,0.595 -3.567,1.081 -1.675,0.271 -3.567,0.433 -5.891,0.703 l 0,0 c 0.217,-2.703 0.217,-4.756 -0.216,-6.972 -0.543,-2.164 -1.299,-4.001 -2.488,-5.73 l 0,0 z"
       style="fill:#7fceff;fill-rule:evenodd;stroke:#000000;stroke-width:0.036;stroke-miterlimit:10"
       id="path59"
       inkscape:connector-curvature="0" /><path
       d="m 130.546,190.072 c -2.27,-1.081 -5.728,-1.622 -10.375,-1.405 -4.864,0 -12.97,0.702 -17.833,2.107 -4.756,1.406 -7.674,2.973 -11.079,5.944 -3.729,2.811 -8.646,7.35 -10.375,10.7 -1.729,3.081 -1.297,5.565 -0.163,8.052 0.865,2.217 3.243,4.215 5.891,6.215 2.594,2.107 7.944,3.945 9.619,6.107 1.405,1.999 0.108,2.973 -0.54,6.053 -0.702,3.025 -3.674,8.809 -3.729,12.321 -0.271,3.243 -2.216,4.971 2.702,7.89 4.972,3.025 19.077,6.863 26.264,9.62 6.81,2.377 11.241,2.971 14.97,5.565 3.566,2.594 4.917,7.512 7.188,10.377 2.107,2.701 1.459,3.673 6.214,6.051 4.702,2.325 15.51,5.675 21.995,7.351 6.161,1.352 9.728,1.621 15.726,1.243 6.053,-0.433 15.565,-2.595 19.995,-3.566 3.999,-1.298 4.432,-0.92 5.026,-3.243 0.54,-2.432 -1.405,-8.214 -1.46,-11.078 -0.324,-2.919 -2.431,-4.647 0.541,-6.432 2.919,-1.999 11.835,-3.025 17.186,-4.971 5.08,-2.108 11.456,-4.432 13.942,-6.972 2.378,-2.647 -0.378,-6.485 0.702,-8.592 0.812,-2.433 2.27,-3.135 5.188,-4.811 2.919,-1.566 10.7,-2.973 12.321,-4.864 1.189,-2.162 -3.242,-5.675 -3.944,-7.835 -0.703,-2.324 -0.703,-4.217 0.215,-5.891 0.974,-2 5.675,-3.297 5.134,-5.351 -0.811,-2.269 -4.81,-5.188 -9.078,-7.512 -4.432,-2.432 -10.322,-5.62 -16.645,-6.431 -6.377,-0.92 -13.511,-0.648 -21.4,1.027 l 0,0 c -1.08,1.459 -2.323,3.188 -3.945,5.187 -1.675,1.946 -3.512,4.162 -5.729,6.648 l 0,0 c 0.865,2.215 1.893,4.269 2.486,6.97 0.595,2.486 1.352,4.541 1.459,8.215 -0.162,3.729 -1.189,11.403 -1.622,13.403 -0.539,1.458 -1.241,-1.081 -1.241,-3.243 -0.163,-2.323 1.026,-6.214 0.863,-9.619 -0.27,-3.513 -1.782,-7.891 -2.484,-10.214 -0.812,-2.323 -1.461,-3.458 -2.163,-3.405 l 0,0 c -0.594,0.541 -1.621,0.973 -2.486,1.297 -1.025,0.217 -2.16,0.324 -3.403,0.324 l 0,0 c 1.513,1.73 2.162,3.945 2.162,6.432 -0.271,2.594 -1.298,5.944 -2.486,8.593 -1.406,2.431 -3.621,5.782 -4.323,5.891 -0.541,-0.108 0.378,-3.999 1.08,-6.053 0.648,-2.323 2.108,-4.323 2.324,-6.81 -0.055,-2.594 -0.757,-5.025 -2.324,-7.89 l 0,0 c -4.269,-1.837 -8.269,-2.702 -11.78,-2.811 -3.567,-0.054 -6.377,1.622 -9.674,2.323 -3.459,0.65 -7.241,1.135 -10.538,1.244 -3.351,-0.109 -6.377,-0.379 -9.295,-1.244 l 0,0 c -1.566,2.162 -2.594,4.756 -2.486,7.998 -0.161,3.08 1.514,8.16 2.324,11.079 0.702,2.973 2.054,5.079 1.945,6.107 -0.378,0.647 -1.999,0.054 -3.188,-1.784 -1.188,-2.216 -3.62,-6.377 -3.782,-10.214 -0.325,-4.054 2.432,-11.456 1.999,-12.862 -0.594,-1.404 -3.621,2.432 -5.35,4.648 -2.108,1.892 -5.135,4.701 -5.944,8.214 -0.758,3.621 1.135,10.592 1.297,13.402 -0.271,2.701 -0.812,3.62 -1.622,2.323 -0.811,-1.567 -2.81,-7.944 -2.863,-11.402 -0.163,-3.566 0.324,-6.377 2.323,-9.674 1.945,-3.404 4.972,-6.916 9.295,-10.537 l 0,0 c -5.35,-4.215 -9.078,-8.214 -11.781,-11.998 -2.701,-3.836 -3.458,-7.943 -3.944,-10.861 -0.545,-3.132 -0.383,-5.51 0.698,-7.346 l 0,0 z"
       style="fill:#7fceff;fill-rule:evenodd;stroke:#000000;stroke-width:0.036;stroke-miterlimit:10"
       id="path61"
       inkscape:connector-curvature="0" /></g></svg>
