<?xml version="1.0" encoding="UTF-8" standalone="no"?>
<!-- Generator: Adobe Illustrator 15.0.0, SVG Export Plug-In . SVG Version: 6.00 Build 0)  -->

<svg
   xmlns:dc="http://purl.org/dc/elements/1.1/"
   xmlns:cc="http://creativecommons.org/ns#"
   xmlns:rdf="http://www.w3.org/1999/02/22-rdf-syntax-ns#"
   xmlns:svg="http://www.w3.org/2000/svg"
   xmlns="http://www.w3.org/2000/svg"
   xmlns:sodipodi="http://sodipodi.sourceforge.net/DTD/sodipodi-0.dtd"
   xmlns:inkscape="http://www.inkscape.org/namespaces/inkscape"
   version="1.1"
   id="Layer_1"
   x="0px"
   y="0px"
   width="128px"
   height="128px"
   viewBox="0 0 128 128"
   style="enable-background:new 0 0 128 128;"
   xml:space="preserve"
   inkscape:version="0.91 r13725"
   sodipodi:docname="sad2.svg"><metadata
     id="metadata23"><rdf:RDF><cc:Work
         rdf:about=""><dc:format>image/svg+xml</dc:format><dc:type
           rdf:resource="http://purl.org/dc/dcmitype/StillImage" /><dc:title></dc:title></cc:Work></rdf:RDF></metadata><defs
     id="defs21" /><sodipodi:namedview
     pagecolor="#ffffff"
     bordercolor="#666666"
     borderopacity="1"
     objecttolerance="10"
     gridtolerance="10"
     guidetolerance="10"
     inkscape:pageopacity="0"
     inkscape:pageshadow="2"
     inkscape:window-width="891"
     inkscape:window-height="480"
     id="namedview19"
     showgrid="false"
     inkscape:zoom="1.84375"
     inkscape:cx="64"
     inkscape:cy="64"
     inkscape:window-x="75"
     inkscape:window-y="34"
     inkscape:window-maximized="0"
     inkscape:current-layer="Layer_1" /><g
     id="g3"
     transform="matrix(-1,0,0,-1,128,128)"><circle
       style="fill:#ffc200"
       cx="64"
       cy="64"
       r="64"
       id="circle5" /><path
       style="fill:#f2b800"
       d="m 64,0 c -1.685,0 -3.349,0.085 -5,0.213 33.006,2.555 59,30.126 59,63.787 0,33.661 -25.994,61.233 -59,63.787 1.651,0.128 3.315,0.213 5,0.213 35.346,0 64,-28.654 64,-64 C 128,28.654 99.346,0 64,0 Z"
       id="path7"
       inkscape:connector-curvature="0" /><path
       style="fill:#f2b800"
       d="m 102.943,103 c -1.916,0 -3.635,-1.065 -4.483,-2.781 C 93.066,89.321 79.218,82 64,82 48.782,82 34.934,89.321 29.54,100.218 28.69,101.935 26.972,103 25.057,103 c -0.764,0 -1.528,-0.18 -2.216,-0.52 -1.196,-0.593 -2.091,-1.614 -2.519,-2.881 -0.428,-1.266 -0.336,-2.622 0.257,-3.818 C 27.729,81.335 44.772,72 64,72 c 19.228,0 36.271,9.335 43.422,23.782 0.592,1.196 0.684,2.553 0.256,3.817 -0.428,1.267 -1.321,2.288 -2.52,2.882 -0.686,0.339 -1.452,0.519 -2.215,0.519 z"
       id="path9"
       inkscape:connector-curvature="0" /><path
       style="fill:#f5f5f5"
       d="m 64,74 c 18.473,0 34.813,8.898 41.629,22.669 0.735,1.485 0.127,3.285 -1.356,4.021 -1.485,0.733 -3.284,0.127 -4.021,-1.357 C 94.529,87.769 79.961,80 64,80 48.039,80 33.471,87.769 27.748,99.331 c -0.735,1.484 -2.536,2.092 -4.021,1.356 -1.483,-0.733 -2.093,-2.533 -1.356,-4.02 C 29.188,82.898 45.527,74 64,74 Z"
       id="path11"
       inkscape:connector-curvature="0" /><g
       id="g13"><path
         style="fill:#263740"
         d="m 51,34 c -1.656,0 -3,1.344 -3,3 0,4.963 -4.037,9 -9,9 -4.963,0 -9,-4.037 -9,-9 0,-1.656 -1.344,-3 -3,-3 -1.656,0 -3,1.344 -3,3 0,8.271 6.729,15 15,15 8.271,0 15,-6.729 15,-15 0,-1.656 -1.344,-3 -3,-3 z"
         id="path15"
         inkscape:connector-curvature="0" /><path
         style="fill:#263740"
         d="m 101,34 c -1.656,0 -3,1.344 -3,3 0,4.963 -4.037,9 -9,9 -4.963,0 -9,-4.037 -9,-9 0,-1.656 -1.344,-3 -3,-3 -1.656,0 -3,1.344 -3,3 0,8.271 6.729,15 15,15 8.271,0 15,-6.729 15,-15 0,-1.656 -1.344,-3 -3,-3 z"
         id="path17"
         inkscape:connector-curvature="0" /></g></g></svg>